# xmcd
#
# Track frame offsets: 
#        150
#        17822
#        34295
#        53960
#        76480
#        90517
#        106340
#        122195
#        131985
#        154340
#        172492
#        186665
#        207260
#        233685
#        256130
#        269475
#        288077
#
# Disc length: 4066 seconds
#
# Revision: 2
# Processed by: cddbd v1.5.1PL2 Copyright (c) Steve Scherf et al.
# Submitted via: ExactAudioCopy v0.95b4
#
DISCID=000fe011
DTITLE=Aura - I Found Love Again
DYEAR=1997
DGENRE=Jazz
TTITLE0=The nearness of you
TTITLE1=Only love until theres none*
TTITLE2=Everybody loves somebody
TTITLE3=I found love again*
TTITLE4=Let there be love
TTITLE5=La vie en rose
TTITLE6=Laura
TTITLE7=The way you look tonight
TTITLE8=Emily
TTITLE9=Too late now
TTITLE10=Lullaby of birdland
TTITLE11=I´ll be all right*
TTITLE12=Crazy he calls me
TTITLE13=Look what you´ve done*
TTITLE14=Beautiful love
TTITLE15=How can you keep the music playing
TTITLE16=I´ll make  you a deal*
EXTD=
EXTT0=
EXTT1=
EXTT2=
EXTT3=
EXTT4=
EXTT5=
EXTT6=
EXTT7=
EXTT8=
EXTT9=
EXTT10=
EXTT11=
EXTT12=
EXTT13=
EXTT14=
EXTT15=
EXTT16=
PLAYORDER=
